<svg xmlns="http://www.w3.org/2000/svg" viewBox="0 0 1200 340" width="100%" role="img" aria-label="GitHub Commit Activity Chart">
  <defs>
    <linearGradient id="apexBg" x1="0%" y1="0%" x2="100%" y2="100%">
      <stop offset="0%" stop-color="#0d1117"/>
      <stop offset="100%" stop-color="#0d1117"/>
    </linearGradient>

    <linearGradient id="apexLine" x1="0%" y1="0%" x2="100%" y2="0%">
      <stop offset="0%" stop-color="#008FFB"/>
      <stop offset="60%" stop-color="#00E396"/>
      <stop offset="100%" stop-color="#775DD0"/>
    </linearGradient>

    <linearGradient id="apexArea" x1="0%" y1="0%" x2="0%" y2="100%">
      <stop offset="0%" stop-color="#008FFB" stop-opacity="0.20"/>
      <stop offset="100%" stop-color="#008FFB" stop-opacity="0.0"/>
    </linearGradient>
  </defs>

  <rect width="1200" height="340" rx="12" fill="url(#apexBg)"/>
  <rect width="1198" height="338" x="1" y="1" rx="11" fill="none" stroke="#21262d" stroke-width="1"/>

  <g transform="translate(40, 38)">
    <text x="0" y="0" fill="#F1F5F9" font-family="'Segoe UI', Helvetica, Arial, sans-serif" font-size="17" font-weight="700">Commit Activity</text>
    <text x="0" y="20" fill="#6C7A9C" font-family="'Segoe UI', Helvetica, Arial, sans-serif" font-size="12">Daily commit activity over the last 30 days</text>
  </g>

  <g transform="translate(1160, 38)">
    <g transform="translate(-260, -2)">
      <circle cx="0" cy="0" r="4" fill="#008FFB"/>
      <text x="12" y="4" fill="#94A3B8" font-family="'Segoe UI', Helvetica, Arial, sans-serif" font-size="12">Total: <tspan fill="#F1F5F9" font-weight="700">773</tspan></text>
    </g>
    <g transform="translate(-140, -2)">
      <circle cx="0" cy="0" r="4" fill="#00E396"/>
      <text x="12" y="4" fill="#94A3B8" font-family="'Segoe UI', Helvetica, Arial, sans-serif" font-size="12">Avg: <tspan fill="#F1F5F9" font-weight="700">13.9</tspan>/day</text>
    </g>
  </g>

  
      <line x1="70" y1="275.0" x2="1150" y2="275.0" stroke="#21262d" stroke-dasharray="3 3"/>
      <text x="58" y="279.0" fill="#484f58" font-family="'Segoe UI', Helvetica, Arial, sans-serif" font-size="11" text-anchor="end">0</text>
    
      <line x1="70" y1="230.0" x2="1150" y2="230.0" stroke="#21262d" stroke-dasharray="3 3"/>
      <text x="58" y="234.0" fill="#484f58" font-family="'Segoe UI', Helvetica, Arial, sans-serif" font-size="11" text-anchor="end">14</text>
    
      <line x1="70" y1="185.0" x2="1150" y2="185.0" stroke="#21262d" stroke-dasharray="3 3"/>
      <text x="58" y="189.0" fill="#484f58" font-family="'Segoe UI', Helvetica, Arial, sans-serif" font-size="11" text-anchor="end">28</text>
    
      <line x1="70" y1="140.0" x2="1150" y2="140.0" stroke="#21262d" stroke-dasharray="3 3"/>
      <text x="58" y="144.0" fill="#484f58" font-family="'Segoe UI', Helvetica, Arial, sans-serif" font-size="11" text-anchor="end">41</text>
    
      <line x1="70" y1="95.0" x2="1150" y2="95.0" stroke="#21262d" stroke-dasharray="3 3"/>
      <text x="58" y="99.0" fill="#484f58" font-family="'Segoe UI', Helvetica, Arial, sans-serif" font-size="11" text-anchor="end">55</text>
    
  <path d="M70 95 C76.2 116.3, 94.8 204.6, 107.24137931034483 222.63636363636363 C119.7 240.6, 132.1 194.3, 144.48275862068965 203 C156.9 211.7, 169.3 263.0, 181.72413793103448 275 C194.1 287.0, 206.6 275.5, 218.9655172413793 275 C231.4 274.5, 243.8 294.1, 256.2068965517241 271.72727272727275 C268.6 249.4, 281.0 153.4, 293.44827586206895 140.8181818181818 C305.9 128.3, 318.3 175.2, 330.6896551724138 196.45454545454544 C343.1 217.7, 355.5 280.5, 367.9310344827586 268.45454545454544 C380.3 256.5, 392.8 125.0, 405.17241379310343 124.45454545454547 C417.6 123.9, 430.0 242.3, 442.41379310344826 265.1818181818182 C454.8 288.1, 467.2 267.9, 479.6551724137931 261.90909090909093 C492.1 255.9, 504.5 245.5, 516.8965517241379 229.1818181818182 C529.3 212.8, 541.7 163.7, 554.1379310344828 163.72727272727275 C566.6 163.7, 579.0 230.3, 591.3793103448276 229.1818181818182 C603.8 228.1, 616.2 165.9, 628.6206896551724 157.1818181818182 C641.0 148.5, 653.4 159.4, 665.8620689655172 176.8181818181818 C678.3 194.3, 690.7 247.7, 703.1034482758621 261.90909090909093 C715.5 276.1, 727.9 261.9, 740.3448275862069 261.90909090909093 C752.8 261.9, 765.2 262.5, 777.5862068965517 261.90909090909093 C790.0 261.4, 802.4 261.4, 814.8275862068965 258.6363636363636 C827.2 255.9, 839.7 245.0, 852.0689655172414 245.54545454545456 C864.5 246.1, 876.9 265.7, 889.3103448275862 261.90909090909093 C901.7 258.1, 914.1 222.6, 926.551724137931 222.63636363636363 C939.0 222.6, 951.4 255.4, 963.7931034482758 261.90909090909093 C976.2 268.5, 988.6 263.0, 1001.0344827586207 261.90909090909093 C1013.4 260.8, 1025.9 258.6, 1038.2758620689656 255.36363636363637 C1050.7 252.1, 1063.1 241.7, 1075.5172413793102 242.27272727272728 C1087.9 242.8, 1100.3 253.2, 1112.7586206896551 258.6363636363636 C1125.2 264.1, 1143.8 272.3, 1150 275 L 1150.0 275 L 70.0 275 Z" fill="url(#apexArea)"/>
  <path d="M70 95 C76.2 116.3, 94.8 204.6, 107.24137931034483 222.63636363636363 C119.7 240.6, 132.1 194.3, 144.48275862068965 203 C156.9 211.7, 169.3 263.0, 181.72413793103448 275 C194.1 287.0, 206.6 275.5, 218.9655172413793 275 C231.4 274.5, 243.8 294.1, 256.2068965517241 271.72727272727275 C268.6 249.4, 281.0 153.4, 293.44827586206895 140.8181818181818 C305.9 128.3, 318.3 175.2, 330.6896551724138 196.45454545454544 C343.1 217.7, 355.5 280.5, 367.9310344827586 268.45454545454544 C380.3 256.5, 392.8 125.0, 405.17241379310343 124.45454545454547 C417.6 123.9, 430.0 242.3, 442.41379310344826 265.1818181818182 C454.8 288.1, 467.2 267.9, 479.6551724137931 261.90909090909093 C492.1 255.9, 504.5 245.5, 516.8965517241379 229.1818181818182 C529.3 212.8, 541.7 163.7, 554.1379310344828 163.72727272727275 C566.6 163.7, 579.0 230.3, 591.3793103448276 229.1818181818182 C603.8 228.1, 616.2 165.9, 628.6206896551724 157.1818181818182 C641.0 148.5, 653.4 159.4, 665.8620689655172 176.8181818181818 C678.3 194.3, 690.7 247.7, 703.1034482758621 261.90909090909093 C715.5 276.1, 727.9 261.9, 740.3448275862069 261.90909090909093 C752.8 261.9, 765.2 262.5, 777.5862068965517 261.90909090909093 C790.0 261.4, 802.4 261.4, 814.8275862068965 258.6363636363636 C827.2 255.9, 839.7 245.0, 852.0689655172414 245.54545454545456 C864.5 246.1, 876.9 265.7, 889.3103448275862 261.90909090909093 C901.7 258.1, 914.1 222.6, 926.551724137931 222.63636363636363 C939.0 222.6, 951.4 255.4, 963.7931034482758 261.90909090909093 C976.2 268.5, 988.6 263.0, 1001.0344827586207 261.90909090909093 C1013.4 260.8, 1025.9 258.6, 1038.2758620689656 255.36363636363637 C1050.7 252.1, 1063.1 241.7, 1075.5172413793102 242.27272727272728 C1087.9 242.8, 1100.3 253.2, 1112.7586206896551 258.6363636363636 C1125.2 264.1, 1143.8 272.3, 1150 275" fill="none" stroke="url(#apexLine)" stroke-width="3" stroke-linecap="round" stroke-linejoin="round"/>
  
        <circle cx="70.0" cy="95.0" r="8" fill="#00E396" fill-opacity="0.20"/>
        <circle cx="70.0" cy="95.0" r="5" fill="#00E396" stroke="#0d1117" stroke-width="2">
          <title>Aug 19: 55 commits</title>
        </circle>
        
        <g transform="translate(70.0, 63.0)">
          <rect x="-46" y="-18" width="92" height="24" rx="4" fill="#1B213B" stroke="#00E396" stroke-width="1.5"/>
          <text x="0" y="-2" fill="#00E396" font-family="'Segoe UI', Helvetica, Arial, sans-serif" font-size="11" font-weight="700" text-anchor="middle">55 commits</text>
        </g>
      
        <circle cx="107.2" cy="222.6" r="4.5" fill="#008FFB" stroke="#0d1117" stroke-width="2">
          <title>Aug 20: 16 commits</title>
        </circle>
      
        <circle cx="144.5" cy="203.0" r="4.5" fill="#008FFB" stroke="#0d1117" stroke-width="2">
          <title>Aug 21: 22 commits</title>
        </circle>
      
        <circle cx="181.7" cy="275.0" r="4.5" fill="#008FFB" stroke="#0d1117" stroke-width="2">
          <title>Aug 22: 0 commits</title>
        </circle>
      
        <circle cx="219.0" cy="275.0" r="4.5" fill="#008FFB" stroke="#0d1117" stroke-width="2">
          <title>Aug 23: 0 commits</title>
        </circle>
      
        <circle cx="256.2" cy="271.7" r="4.5" fill="#008FFB" stroke="#0d1117" stroke-width="2">
          <title>Aug 24: 1 commits</title>
        </circle>
      
        <circle cx="293.4" cy="140.8" r="4.5" fill="#008FFB" stroke="#0d1117" stroke-width="2">
          <title>Aug 25: 41 commits</title>
        </circle>
      
        <circle cx="330.7" cy="196.5" r="4.5" fill="#008FFB" stroke="#0d1117" stroke-width="2">
          <title>Aug 26: 24 commits</title>
        </circle>
      
        <circle cx="367.9" cy="268.5" r="4.5" fill="#008FFB" stroke="#0d1117" stroke-width="2">
          <title>Aug 27: 2 commits</title>
        </circle>
      
        <circle cx="405.2" cy="124.5" r="4.5" fill="#008FFB" stroke="#0d1117" stroke-width="2">
          <title>Aug 28: 46 commits</title>
        </circle>
      
        <circle cx="442.4" cy="265.2" r="4.5" fill="#008FFB" stroke="#0d1117" stroke-width="2">
          <title>Aug 29: 3 commits</title>
        </circle>
      
        <circle cx="479.7" cy="261.9" r="4.5" fill="#008FFB" stroke="#0d1117" stroke-width="2">
          <title>Aug 30: 4 commits</title>
        </circle>
      
        <circle cx="516.9" cy="229.2" r="4.5" fill="#008FFB" stroke="#0d1117" stroke-width="2">
          <title>Aug 31: 14 commits</title>
        </circle>
      
        <circle cx="554.1" cy="163.7" r="4.5" fill="#008FFB" stroke="#0d1117" stroke-width="2">
          <title>Sep 1: 34 commits</title>
        </circle>
      
        <circle cx="591.4" cy="229.2" r="4.5" fill="#008FFB" stroke="#0d1117" stroke-width="2">
          <title>Sep 2: 14 commits</title>
        </circle>
      
        <circle cx="628.6" cy="157.2" r="4.5" fill="#008FFB" stroke="#0d1117" stroke-width="2">
          <title>Sep 3: 36 commits</title>
        </circle>
      
        <circle cx="665.9" cy="176.8" r="4.5" fill="#008FFB" stroke="#0d1117" stroke-width="2">
          <title>Sep 4: 30 commits</title>
        </circle>
      
        <circle cx="703.1" cy="261.9" r="4.5" fill="#008FFB" stroke="#0d1117" stroke-width="2">
          <title>Sep 5: 4 commits</title>
        </circle>
      
        <circle cx="740.3" cy="261.9" r="4.5" fill="#008FFB" stroke="#0d1117" stroke-width="2">
          <title>Sep 6: 4 commits</title>
        </circle>
      
        <circle cx="777.6" cy="261.9" r="4.5" fill="#008FFB" stroke="#0d1117" stroke-width="2">
          <title>Sep 7: 4 commits</title>
        </circle>
      
        <circle cx="814.8" cy="258.6" r="4.5" fill="#008FFB" stroke="#0d1117" stroke-width="2">
          <title>Sep 8: 5 commits</title>
        </circle>
      
        <circle cx="852.1" cy="245.5" r="4.5" fill="#008FFB" stroke="#0d1117" stroke-width="2">
          <title>Sep 9: 9 commits</title>
        </circle>
      
        <circle cx="889.3" cy="261.9" r="4.5" fill="#008FFB" stroke="#0d1117" stroke-width="2">
          <title>Sep 10: 4 commits</title>
        </circle>
      
        <circle cx="926.6" cy="222.6" r="4.5" fill="#008FFB" stroke="#0d1117" stroke-width="2">
          <title>Sep 11: 16 commits</title>
        </circle>
      
        <circle cx="963.8" cy="261.9" r="4.5" fill="#008FFB" stroke="#0d1117" stroke-width="2">
          <title>Sep 12: 4 commits</title>
        </circle>
      
        <circle cx="1001.0" cy="261.9" r="4.5" fill="#008FFB" stroke="#0d1117" stroke-width="2">
          <title>Sep 13: 4 commits</title>
        </circle>
      
        <circle cx="1038.3" cy="255.4" r="4.5" fill="#008FFB" stroke="#0d1117" stroke-width="2">
          <title>Sep 14: 6 commits</title>
        </circle>
      
        <circle cx="1075.5" cy="242.3" r="4.5" fill="#008FFB" stroke="#0d1117" stroke-width="2">
          <title>Sep 15: 10 commits</title>
        </circle>
      
        <circle cx="1112.8" cy="258.6" r="4.5" fill="#008FFB" stroke="#0d1117" stroke-width="2">
          <title>Sep 16: 5 commits</title>
        </circle>
      
        <circle cx="1150.0" cy="275.0" r="4.5" fill="#008FFB" stroke="#0d1117" stroke-width="2">
          <title>Sep 17: 0 commits</title>
        </circle>
      
  <line x1="70" y1="275" x2="1150" y2="275" stroke="#21262d" stroke-width="1"/>
        <line x1="70.0" y1="275" x2="70.0" y2="281" stroke="#30363d"/>
        <text x="70.0" y="297" fill="#00E396" font-family="'Segoe UI', Helvetica, Arial, sans-serif" font-size="11" font-weight="700" text-anchor="middle">19 Ago</text>
      <line x1="107.2" y1="275" x2="107.2" y2="278" stroke="#21262d"/><line x1="144.5" y1="275" x2="144.5" y2="278" stroke="#21262d"/><line x1="181.7" y1="275" x2="181.7" y2="278" stroke="#21262d"/><line x1="219.0" y1="275" x2="219.0" y2="278" stroke="#21262d"/>
        <line x1="256.2" y1="275" x2="256.2" y2="281" stroke="#30363d"/>
        <text x="256.2" y="297" fill="#8b949e" font-family="'Segoe UI', Helvetica, Arial, sans-serif" font-size="11" font-weight="400" text-anchor="middle">24 Ago</text>
      <line x1="293.4" y1="275" x2="293.4" y2="278" stroke="#21262d"/><line x1="330.7" y1="275" x2="330.7" y2="278" stroke="#21262d"/><line x1="367.9" y1="275" x2="367.9" y2="278" stroke="#21262d"/><line x1="405.2" y1="275" x2="405.2" y2="278" stroke="#21262d"/>
        <line x1="442.4" y1="275" x2="442.4" y2="281" stroke="#30363d"/>
        <text x="442.4" y="297" fill="#8b949e" font-family="'Segoe UI', Helvetica, Arial, sans-serif" font-size="11" font-weight="400" text-anchor="middle">29 Ago</text>
      <line x1="479.7" y1="275" x2="479.7" y2="278" stroke="#21262d"/><line x1="516.9" y1="275" x2="516.9" y2="278" stroke="#21262d"/><line x1="554.1" y1="275" x2="554.1" y2="278" stroke="#21262d"/><line x1="591.4" y1="275" x2="591.4" y2="278" stroke="#21262d"/>
        <line x1="628.6" y1="275" x2="628.6" y2="281" stroke="#30363d"/>
        <text x="628.6" y="297" fill="#8b949e" font-family="'Segoe UI', Helvetica, Arial, sans-serif" font-size="11" font-weight="400" text-anchor="middle">3 Set</text>
      <line x1="665.9" y1="275" x2="665.9" y2="278" stroke="#21262d"/><line x1="703.1" y1="275" x2="703.1" y2="278" stroke="#21262d"/><line x1="740.3" y1="275" x2="740.3" y2="278" stroke="#21262d"/><line x1="777.6" y1="275" x2="777.6" y2="278" stroke="#21262d"/>
        <line x1="814.8" y1="275" x2="814.8" y2="281" stroke="#30363d"/>
        <text x="814.8" y="297" fill="#8b949e" font-family="'Segoe UI', Helvetica, Arial, sans-serif" font-size="11" font-weight="400" text-anchor="middle">8 Set</text>
      <line x1="852.1" y1="275" x2="852.1" y2="278" stroke="#21262d"/><line x1="889.3" y1="275" x2="889.3" y2="278" stroke="#21262d"/><line x1="926.6" y1="275" x2="926.6" y2="278" stroke="#21262d"/><line x1="963.8" y1="275" x2="963.8" y2="278" stroke="#21262d"/>
        <line x1="1001.0" y1="275" x2="1001.0" y2="281" stroke="#30363d"/>
        <text x="1001.0" y="297" fill="#8b949e" font-family="'Segoe UI', Helvetica, Arial, sans-serif" font-size="11" font-weight="400" text-anchor="middle">13 Set</text>
      <line x1="1038.3" y1="275" x2="1038.3" y2="278" stroke="#21262d"/><line x1="1075.5" y1="275" x2="1075.5" y2="278" stroke="#21262d"/><line x1="1112.8" y1="275" x2="1112.8" y2="278" stroke="#21262d"/>
        <line x1="1150.0" y1="275" x2="1150.0" y2="281" stroke="#30363d"/>
        <text x="1150.0" y="297" fill="#8b949e" font-family="'Segoe UI', Helvetica, Arial, sans-serif" font-size="11" font-weight="400" text-anchor="middle">17 Set</text>
      
</svg>